<mxfile host="Electron" modified="2023-04-27T22:57:35.302Z" agent="Mozilla/5.0 (X11; Linux x86_64) AppleWebKit/537.36 (KHTML, like Gecko) draw.io/21.2.1 Chrome/112.0.5615.87 Electron/24.1.2 Safari/537.36" etag="2322ntGsy3Xesz9e6hOJ" version="21.2.1" type="device">
  <diagram id="_QwVPOAPyQG-Wvx7g-G_" name="weakly admissible">
    <mxGraphModel dx="1247" dy="-530" grid="1" gridSize="10" guides="0" tooltips="1" connect="0" arrows="0" fold="1" page="0" pageScale="1" pageWidth="827" pageHeight="1169" background="none" math="1" shadow="0">
      <root>
        <mxCell id="Ogjc830XC39CnvKuDkZH-0" />
        <object label="Background" id="EZCYXmooXl2QGBisD6OS-4">
          <mxCell style="locked=1;" parent="Ogjc830XC39CnvKuDkZH-0" />
        </object>
        <mxCell id="EEb3bdWyqQPqb6_M2bX1-0" value="" style="whiteSpace=wrap;html=1;strokeColor=none;fillColor=#FBFBFB;opacity=75;" parent="EZCYXmooXl2QGBisD6OS-4" vertex="1">
          <mxGeometry x="-570" y="880" width="1290" height="530" as="geometry" />
        </mxCell>
        <mxCell id="z-EAe0dY2amTnxgb3iXo-11" value="" style="endArrow=none;html=1;strokeWidth=1;rounded=0;comic=1;sketch=0;jiggle=0;fontColor=#FF4A4A;strokeColor=#B0B0B0;dashed=1;" parent="EZCYXmooXl2QGBisD6OS-4" edge="1">
          <mxGeometry width="50" height="50" relative="1" as="geometry">
            <mxPoint x="-60" y="1340" as="sourcePoint" />
            <mxPoint y="1400" as="targetPoint" />
          </mxGeometry>
        </mxCell>
        <object label="diagonals" id="Ogjc830XC39CnvKuDkZH-1">
          <mxCell style="locked=1;" parent="Ogjc830XC39CnvKuDkZH-0" />
        </object>
        <mxCell id="GxkTbLhnbYumx701_KCX-69" value="" style="endArrow=none;html=1;strokeColor=#e6e6e6;strokeWidth=4;curved=1;sketch=0;jiggle=0;fixDash=0;backgroundOutline=0;comic=1;orthogonal=0;orthogonalLoop=0;ignoreEdge=0;" parent="Ogjc830XC39CnvKuDkZH-1" edge="1">
          <mxGeometry width="50" height="50" relative="1" as="geometry">
            <mxPoint x="-400" y="930" as="sourcePoint" />
            <mxPoint x="-400" y="1390" as="targetPoint" />
          </mxGeometry>
        </mxCell>
        <mxCell id="2zsmt-05qYfTrGcmLBN7-47" value="" style="endArrow=none;html=1;strokeWidth=1;rounded=0;comic=1;sketch=0;jiggle=0;fontColor=#FF4A4A;strokeColor=#B0B0B0;dashed=1;" parent="Ogjc830XC39CnvKuDkZH-1" edge="1">
          <mxGeometry width="50" height="50" relative="1" as="geometry">
            <mxPoint x="-470" y="930" as="sourcePoint" />
            <mxPoint x="-410" y="990" as="targetPoint" />
          </mxGeometry>
        </mxCell>
        <mxCell id="2zsmt-05qYfTrGcmLBN7-49" value="" style="endArrow=none;html=1;strokeWidth=1;rounded=0;comic=1;sketch=0;jiggle=0;fontColor=#FF4A4A;strokeColor=#B0B0B0;dashed=1;" parent="Ogjc830XC39CnvKuDkZH-1" edge="1">
          <mxGeometry width="50" height="50" relative="1" as="geometry">
            <mxPoint x="-550" y="1330" as="sourcePoint" />
            <mxPoint x="-490" y="1390" as="targetPoint" />
          </mxGeometry>
        </mxCell>
        <mxCell id="2zsmt-05qYfTrGcmLBN7-50" value="" style="endArrow=none;html=1;strokeWidth=1;rounded=0;comic=1;sketch=0;jiggle=0;fontColor=#FF4A4A;strokeColor=#B0B0B0;dashed=1;" parent="Ogjc830XC39CnvKuDkZH-1" edge="1">
          <mxGeometry width="50" height="50" relative="1" as="geometry">
            <mxPoint x="-550" y="930" as="sourcePoint" />
            <mxPoint x="-410" y="1070" as="targetPoint" />
          </mxGeometry>
        </mxCell>
        <mxCell id="2zsmt-05qYfTrGcmLBN7-51" value="" style="endArrow=none;html=1;strokeWidth=1;rounded=0;comic=1;sketch=0;jiggle=0;fontColor=#FF4A4A;strokeColor=#B0B0B0;dashed=1;" parent="Ogjc830XC39CnvKuDkZH-1" edge="1">
          <mxGeometry width="50" height="50" relative="1" as="geometry">
            <mxPoint x="-550" y="1010" as="sourcePoint" />
            <mxPoint x="-410" y="1150" as="targetPoint" />
          </mxGeometry>
        </mxCell>
        <mxCell id="2zsmt-05qYfTrGcmLBN7-52" value="" style="endArrow=none;html=1;strokeWidth=1;rounded=0;comic=1;sketch=0;jiggle=0;fontColor=#FF4A4A;strokeColor=#B0B0B0;dashed=1;" parent="Ogjc830XC39CnvKuDkZH-1" edge="1">
          <mxGeometry width="50" height="50" relative="1" as="geometry">
            <mxPoint x="-550" y="1090" as="sourcePoint" />
            <mxPoint x="-410" y="1230" as="targetPoint" />
          </mxGeometry>
        </mxCell>
        <mxCell id="2zsmt-05qYfTrGcmLBN7-53" value="" style="endArrow=none;html=1;strokeWidth=1;rounded=0;comic=1;sketch=0;jiggle=0;fontColor=#FF4A4A;strokeColor=#B0B0B0;dashed=1;" parent="Ogjc830XC39CnvKuDkZH-1" edge="1">
          <mxGeometry width="50" height="50" relative="1" as="geometry">
            <mxPoint x="-550" y="1250" as="sourcePoint" />
            <mxPoint x="-410" y="1390" as="targetPoint" />
          </mxGeometry>
        </mxCell>
        <mxCell id="2zsmt-05qYfTrGcmLBN7-54" value="" style="endArrow=none;html=1;strokeWidth=1;rounded=0;comic=1;sketch=0;jiggle=0;fontColor=#FF4A4A;strokeColor=#B0B0B0;dashed=1;" parent="Ogjc830XC39CnvKuDkZH-1" edge="1">
          <mxGeometry width="50" height="50" relative="1" as="geometry">
            <mxPoint x="-310" y="930" as="sourcePoint" />
            <mxPoint x="-250" y="990" as="targetPoint" />
          </mxGeometry>
        </mxCell>
        <mxCell id="2zsmt-05qYfTrGcmLBN7-56" value="" style="endArrow=none;html=1;strokeWidth=1;rounded=0;comic=1;sketch=0;jiggle=0;fontColor=#FF4A4A;strokeColor=#B0B0B0;dashed=1;" parent="Ogjc830XC39CnvKuDkZH-1" edge="1">
          <mxGeometry width="50" height="50" relative="1" as="geometry">
            <mxPoint x="-390" y="1330" as="sourcePoint" />
            <mxPoint x="-330" y="1390" as="targetPoint" />
          </mxGeometry>
        </mxCell>
        <mxCell id="2zsmt-05qYfTrGcmLBN7-57" value="" style="endArrow=none;html=1;strokeWidth=1;rounded=0;comic=1;sketch=0;jiggle=0;fontColor=#FF4A4A;strokeColor=#B0B0B0;dashed=1;" parent="Ogjc830XC39CnvKuDkZH-1" edge="1">
          <mxGeometry width="50" height="50" relative="1" as="geometry">
            <mxPoint x="-390" y="930" as="sourcePoint" />
            <mxPoint x="-250" y="1070" as="targetPoint" />
          </mxGeometry>
        </mxCell>
        <mxCell id="2zsmt-05qYfTrGcmLBN7-58" value="" style="endArrow=none;html=1;strokeWidth=1;rounded=0;comic=1;sketch=0;jiggle=0;fontColor=#FF4A4A;strokeColor=#B0B0B0;dashed=1;" parent="Ogjc830XC39CnvKuDkZH-1" edge="1">
          <mxGeometry width="50" height="50" relative="1" as="geometry">
            <mxPoint x="-390" y="1010" as="sourcePoint" />
            <mxPoint x="-250" y="1150" as="targetPoint" />
          </mxGeometry>
        </mxCell>
        <mxCell id="2zsmt-05qYfTrGcmLBN7-59" value="" style="endArrow=none;html=1;strokeWidth=1;rounded=0;comic=1;sketch=0;jiggle=0;fontColor=#FF4A4A;strokeColor=#B0B0B0;dashed=1;" parent="Ogjc830XC39CnvKuDkZH-1" edge="1">
          <mxGeometry width="50" height="50" relative="1" as="geometry">
            <mxPoint x="-390" y="1090" as="sourcePoint" />
            <mxPoint x="-250" y="1230" as="targetPoint" />
          </mxGeometry>
        </mxCell>
        <mxCell id="2zsmt-05qYfTrGcmLBN7-60" value="" style="endArrow=none;html=1;strokeWidth=1;rounded=0;comic=1;sketch=0;jiggle=0;fontColor=#FF4A4A;strokeColor=#B0B0B0;dashed=1;" parent="Ogjc830XC39CnvKuDkZH-1" edge="1">
          <mxGeometry width="50" height="50" relative="1" as="geometry">
            <mxPoint x="-390" y="1170" as="sourcePoint" />
            <mxPoint x="-250" y="1310" as="targetPoint" />
          </mxGeometry>
        </mxCell>
        <mxCell id="2zsmt-05qYfTrGcmLBN7-61" value="" style="endArrow=none;html=1;strokeWidth=1;rounded=0;comic=1;sketch=0;jiggle=0;fontColor=#FF4A4A;strokeColor=#B0B0B0;dashed=1;" parent="Ogjc830XC39CnvKuDkZH-1" edge="1">
          <mxGeometry width="50" height="50" relative="1" as="geometry">
            <mxPoint x="-150" y="930" as="sourcePoint" />
            <mxPoint x="-90" y="990" as="targetPoint" />
          </mxGeometry>
        </mxCell>
        <mxCell id="2zsmt-05qYfTrGcmLBN7-63" value="" style="endArrow=none;html=1;strokeWidth=1;rounded=0;comic=1;sketch=0;jiggle=0;fontColor=#FF4A4A;strokeColor=#B0B0B0;dashed=1;" parent="Ogjc830XC39CnvKuDkZH-1" edge="1">
          <mxGeometry width="50" height="50" relative="1" as="geometry">
            <mxPoint x="-230" y="1330" as="sourcePoint" />
            <mxPoint x="-170" y="1390" as="targetPoint" />
          </mxGeometry>
        </mxCell>
        <mxCell id="2zsmt-05qYfTrGcmLBN7-64" value="" style="endArrow=none;html=1;strokeWidth=1;rounded=0;comic=1;sketch=0;jiggle=0;fontColor=#FF4A4A;strokeColor=#B0B0B0;dashed=1;" parent="Ogjc830XC39CnvKuDkZH-1" edge="1">
          <mxGeometry width="50" height="50" relative="1" as="geometry">
            <mxPoint x="-230" y="930" as="sourcePoint" />
            <mxPoint x="-90" y="1070" as="targetPoint" />
          </mxGeometry>
        </mxCell>
        <mxCell id="2zsmt-05qYfTrGcmLBN7-65" value="" style="endArrow=none;html=1;strokeWidth=1;rounded=0;comic=1;sketch=0;jiggle=0;fontColor=#FF4A4A;strokeColor=#B0B0B0;dashed=1;" parent="Ogjc830XC39CnvKuDkZH-1" edge="1">
          <mxGeometry width="50" height="50" relative="1" as="geometry">
            <mxPoint x="-230" y="1010" as="sourcePoint" />
            <mxPoint x="-90" y="1150" as="targetPoint" />
          </mxGeometry>
        </mxCell>
        <mxCell id="2zsmt-05qYfTrGcmLBN7-66" value="" style="endArrow=none;html=1;strokeWidth=1;rounded=0;comic=1;sketch=0;jiggle=0;fontColor=#FF4A4A;strokeColor=#B0B0B0;dashed=1;" parent="Ogjc830XC39CnvKuDkZH-1" edge="1">
          <mxGeometry width="50" height="50" relative="1" as="geometry">
            <mxPoint x="-230" y="1090" as="sourcePoint" />
            <mxPoint x="-90" y="1230" as="targetPoint" />
          </mxGeometry>
        </mxCell>
        <mxCell id="2zsmt-05qYfTrGcmLBN7-67" value="" style="endArrow=none;html=1;strokeWidth=1;rounded=0;comic=1;sketch=0;jiggle=0;fontColor=#FF4A4A;strokeColor=#B0B0B0;dashed=1;" parent="Ogjc830XC39CnvKuDkZH-1" edge="1">
          <mxGeometry width="50" height="50" relative="1" as="geometry">
            <mxPoint x="-230" y="1170" as="sourcePoint" />
            <mxPoint x="-90" y="1310" as="targetPoint" />
          </mxGeometry>
        </mxCell>
        <mxCell id="2zsmt-05qYfTrGcmLBN7-68" value="" style="endArrow=none;html=1;strokeWidth=1;rounded=0;comic=1;sketch=0;jiggle=0;fontColor=#FF4A4A;strokeColor=#B0B0B0;dashed=1;" parent="Ogjc830XC39CnvKuDkZH-1" edge="1">
          <mxGeometry width="50" height="50" relative="1" as="geometry">
            <mxPoint x="10" y="930" as="sourcePoint" />
            <mxPoint x="70" y="990" as="targetPoint" />
          </mxGeometry>
        </mxCell>
        <mxCell id="2zsmt-05qYfTrGcmLBN7-70" value="" style="endArrow=none;html=1;strokeWidth=1;rounded=0;comic=1;sketch=0;jiggle=0;fontColor=#FF4A4A;strokeColor=#B0B0B0;dashed=1;" parent="Ogjc830XC39CnvKuDkZH-1" edge="1">
          <mxGeometry width="50" height="50" relative="1" as="geometry">
            <mxPoint x="100" y="1340" as="sourcePoint" />
            <mxPoint x="160" y="1400" as="targetPoint" />
          </mxGeometry>
        </mxCell>
        <mxCell id="2zsmt-05qYfTrGcmLBN7-71" value="" style="endArrow=none;html=1;strokeWidth=1;rounded=0;comic=1;sketch=0;jiggle=0;fontColor=#FF4A4A;strokeColor=#B0B0B0;dashed=1;" parent="Ogjc830XC39CnvKuDkZH-1" edge="1">
          <mxGeometry width="50" height="50" relative="1" as="geometry">
            <mxPoint x="-70" y="930" as="sourcePoint" />
            <mxPoint x="70" y="1070" as="targetPoint" />
          </mxGeometry>
        </mxCell>
        <mxCell id="2zsmt-05qYfTrGcmLBN7-72" value="" style="endArrow=none;html=1;strokeWidth=1;rounded=0;comic=1;sketch=0;jiggle=0;fontColor=#FF4A4A;strokeColor=#B0B0B0;dashed=1;" parent="Ogjc830XC39CnvKuDkZH-1" edge="1">
          <mxGeometry width="50" height="50" relative="1" as="geometry">
            <mxPoint x="-70" y="1010" as="sourcePoint" />
            <mxPoint x="70" y="1150" as="targetPoint" />
          </mxGeometry>
        </mxCell>
        <mxCell id="2zsmt-05qYfTrGcmLBN7-73" value="" style="endArrow=none;html=1;strokeWidth=1;rounded=0;comic=1;sketch=0;jiggle=0;fontColor=#FF4A4A;strokeColor=#B0B0B0;dashed=1;" parent="Ogjc830XC39CnvKuDkZH-1" edge="1">
          <mxGeometry width="50" height="50" relative="1" as="geometry">
            <mxPoint x="-70" y="1090" as="sourcePoint" />
            <mxPoint x="70" y="1230" as="targetPoint" />
          </mxGeometry>
        </mxCell>
        <mxCell id="2zsmt-05qYfTrGcmLBN7-74" value="" style="endArrow=none;html=1;strokeWidth=1;rounded=0;comic=1;sketch=0;jiggle=0;fontColor=#FF4A4A;strokeColor=#B0B0B0;dashed=1;" parent="Ogjc830XC39CnvKuDkZH-1" edge="1">
          <mxGeometry width="50" height="50" relative="1" as="geometry">
            <mxPoint x="-70" y="1170" as="sourcePoint" />
            <mxPoint x="70" y="1310" as="targetPoint" />
          </mxGeometry>
        </mxCell>
        <mxCell id="2zsmt-05qYfTrGcmLBN7-75" value="" style="endArrow=none;html=1;strokeWidth=1;rounded=0;comic=1;sketch=0;jiggle=0;fontColor=#FF4A4A;strokeColor=#B0B0B0;dashed=1;" parent="Ogjc830XC39CnvKuDkZH-1" edge="1">
          <mxGeometry width="50" height="50" relative="1" as="geometry">
            <mxPoint x="170" y="930" as="sourcePoint" />
            <mxPoint x="230" y="990" as="targetPoint" />
          </mxGeometry>
        </mxCell>
        <mxCell id="2zsmt-05qYfTrGcmLBN7-78" value="" style="endArrow=none;html=1;strokeWidth=1;rounded=0;comic=1;sketch=0;jiggle=0;fontColor=#FF4A4A;strokeColor=#B0B0B0;dashed=1;" parent="Ogjc830XC39CnvKuDkZH-1" edge="1">
          <mxGeometry width="50" height="50" relative="1" as="geometry">
            <mxPoint x="90" y="930" as="sourcePoint" />
            <mxPoint x="230" y="1070" as="targetPoint" />
          </mxGeometry>
        </mxCell>
        <mxCell id="2zsmt-05qYfTrGcmLBN7-79" value="" style="endArrow=none;html=1;strokeWidth=1;rounded=0;comic=1;sketch=0;jiggle=0;fontColor=#FF4A4A;strokeColor=#B0B0B0;dashed=1;" parent="Ogjc830XC39CnvKuDkZH-1" edge="1">
          <mxGeometry width="50" height="50" relative="1" as="geometry">
            <mxPoint x="90" y="1010" as="sourcePoint" />
            <mxPoint x="230" y="1150" as="targetPoint" />
          </mxGeometry>
        </mxCell>
        <mxCell id="2zsmt-05qYfTrGcmLBN7-80" value="" style="endArrow=none;html=1;strokeWidth=1;rounded=0;comic=1;sketch=0;jiggle=0;fontColor=#FF4A4A;strokeColor=#B0B0B0;dashed=1;" parent="Ogjc830XC39CnvKuDkZH-1" edge="1">
          <mxGeometry width="50" height="50" relative="1" as="geometry">
            <mxPoint x="90" y="1090" as="sourcePoint" />
            <mxPoint x="230" y="1230" as="targetPoint" />
          </mxGeometry>
        </mxCell>
        <mxCell id="2zsmt-05qYfTrGcmLBN7-81" value="" style="endArrow=none;html=1;strokeWidth=1;rounded=0;comic=1;sketch=0;jiggle=0;fontColor=#FF4A4A;strokeColor=#B0B0B0;dashed=1;" parent="Ogjc830XC39CnvKuDkZH-1" edge="1">
          <mxGeometry width="50" height="50" relative="1" as="geometry">
            <mxPoint x="90" y="1170" as="sourcePoint" />
            <mxPoint x="230" y="1310" as="targetPoint" />
          </mxGeometry>
        </mxCell>
        <mxCell id="Qu6I0BoZJ49vZYLHLRRH-0" value="" style="endArrow=none;html=1;strokeWidth=1;rounded=0;comic=1;sketch=0;jiggle=0;fontColor=#FF4A4A;strokeColor=#B0B0B0;dashed=1;" parent="Ogjc830XC39CnvKuDkZH-1" edge="1">
          <mxGeometry width="50" height="50" relative="1" as="geometry">
            <mxPoint x="-550" y="1170" as="sourcePoint" />
            <mxPoint x="-410" y="1310" as="targetPoint" />
          </mxGeometry>
        </mxCell>
        <mxCell id="Qu6I0BoZJ49vZYLHLRRH-1" value="" style="endArrow=none;html=1;strokeWidth=1;rounded=0;comic=1;sketch=0;jiggle=0;fontColor=#FF4A4A;strokeColor=#B0B0B0;dashed=1;" parent="Ogjc830XC39CnvKuDkZH-1" edge="1">
          <mxGeometry width="50" height="50" relative="1" as="geometry">
            <mxPoint x="-390" y="1250" as="sourcePoint" />
            <mxPoint x="-250" y="1390" as="targetPoint" />
          </mxGeometry>
        </mxCell>
        <mxCell id="Qu6I0BoZJ49vZYLHLRRH-2" value="" style="endArrow=none;html=1;strokeWidth=1;rounded=0;comic=1;sketch=0;jiggle=0;fontColor=#FF4A4A;strokeColor=#B0B0B0;dashed=1;" parent="Ogjc830XC39CnvKuDkZH-1" edge="1">
          <mxGeometry width="50" height="50" relative="1" as="geometry">
            <mxPoint x="-230" y="1250" as="sourcePoint" />
            <mxPoint x="-90" y="1390" as="targetPoint" />
          </mxGeometry>
        </mxCell>
        <mxCell id="Qu6I0BoZJ49vZYLHLRRH-3" value="" style="endArrow=none;html=1;strokeWidth=1;rounded=0;comic=1;sketch=0;jiggle=0;fontColor=#FF4A4A;strokeColor=#B0B0B0;dashed=1;" parent="Ogjc830XC39CnvKuDkZH-1" edge="1">
          <mxGeometry width="50" height="50" relative="1" as="geometry">
            <mxPoint x="-70" y="1250" as="sourcePoint" />
            <mxPoint x="70" y="1390" as="targetPoint" />
          </mxGeometry>
        </mxCell>
        <mxCell id="Qu6I0BoZJ49vZYLHLRRH-4" value="" style="endArrow=none;html=1;strokeWidth=1;rounded=0;comic=1;sketch=0;jiggle=0;fontColor=#FF4A4A;strokeColor=#B0B0B0;dashed=1;" parent="Ogjc830XC39CnvKuDkZH-1" edge="1">
          <mxGeometry width="50" height="50" relative="1" as="geometry">
            <mxPoint x="90" y="1250" as="sourcePoint" />
            <mxPoint x="230" y="1390" as="targetPoint" />
          </mxGeometry>
        </mxCell>
        <mxCell id="-eHtjna2SU54QfVrTyKH-0" value="" style="endArrow=none;html=1;strokeColor=#e6e6e6;strokeWidth=4;curved=1;sketch=0;jiggle=0;fixDash=0;backgroundOutline=0;comic=1;orthogonal=0;orthogonalLoop=0;ignoreEdge=0;" parent="Ogjc830XC39CnvKuDkZH-1" edge="1">
          <mxGeometry width="50" height="50" relative="1" as="geometry">
            <mxPoint x="-240" y="930" as="sourcePoint" />
            <mxPoint x="-240" y="1390" as="targetPoint" />
          </mxGeometry>
        </mxCell>
        <mxCell id="-eHtjna2SU54QfVrTyKH-2" value="" style="endArrow=none;html=1;strokeColor=#e6e6e6;strokeWidth=4;curved=1;sketch=0;jiggle=0;fixDash=0;backgroundOutline=0;comic=1;orthogonal=0;orthogonalLoop=0;ignoreEdge=0;" parent="Ogjc830XC39CnvKuDkZH-1" edge="1">
          <mxGeometry width="50" height="50" relative="1" as="geometry">
            <mxPoint x="80" y="930" as="sourcePoint" />
            <mxPoint x="80" y="1390" as="targetPoint" />
          </mxGeometry>
        </mxCell>
        <mxCell id="-eHtjna2SU54QfVrTyKH-1" value="" style="endArrow=none;html=1;strokeColor=#e6e6e6;strokeWidth=4;curved=1;sketch=0;jiggle=0;fixDash=0;backgroundOutline=0;comic=1;orthogonal=0;orthogonalLoop=0;ignoreEdge=0;" parent="Ogjc830XC39CnvKuDkZH-1" edge="1">
          <mxGeometry width="50" height="50" relative="1" as="geometry">
            <mxPoint x="-80" y="1170" as="sourcePoint" />
            <mxPoint x="-80" y="1390" as="targetPoint" />
          </mxGeometry>
        </mxCell>
        <mxCell id="z-EAe0dY2amTnxgb3iXo-1" value="" style="endArrow=none;html=1;strokeColor=#e6e6e6;strokeWidth=4;curved=1;sketch=0;jiggle=0;fixDash=0;backgroundOutline=0;comic=1;orthogonal=0;orthogonalLoop=0;ignoreEdge=0;" parent="Ogjc830XC39CnvKuDkZH-1" edge="1">
          <mxGeometry width="50" height="50" relative="1" as="geometry">
            <mxPoint x="-80" y="930" as="sourcePoint" />
            <mxPoint x="-80" y="1150" as="targetPoint" />
          </mxGeometry>
        </mxCell>
        <mxCell id="J3fuifu_T9cTO9apQkdv-17" value="" style="endArrow=none;html=1;strokeWidth=1;rounded=0;comic=1;sketch=0;jiggle=0;fontColor=#FF4A4A;strokeColor=#B0B0B0;dashed=1;" parent="Ogjc830XC39CnvKuDkZH-1" edge="1">
          <mxGeometry width="50" height="50" relative="1" as="geometry">
            <mxPoint x="260" y="1340" as="sourcePoint" />
            <mxPoint x="320" y="1400" as="targetPoint" />
          </mxGeometry>
        </mxCell>
        <mxCell id="J3fuifu_T9cTO9apQkdv-18" value="" style="endArrow=none;html=1;strokeWidth=1;rounded=0;comic=1;sketch=0;jiggle=0;fontColor=#FF4A4A;strokeColor=#B0B0B0;dashed=1;" parent="Ogjc830XC39CnvKuDkZH-1" edge="1">
          <mxGeometry width="50" height="50" relative="1" as="geometry">
            <mxPoint x="330" y="930" as="sourcePoint" />
            <mxPoint x="390" y="990" as="targetPoint" />
          </mxGeometry>
        </mxCell>
        <mxCell id="J3fuifu_T9cTO9apQkdv-19" value="" style="endArrow=none;html=1;strokeWidth=1;rounded=0;comic=1;sketch=0;jiggle=0;fontColor=#FF4A4A;strokeColor=#B0B0B0;dashed=1;" parent="Ogjc830XC39CnvKuDkZH-1" edge="1">
          <mxGeometry width="50" height="50" relative="1" as="geometry">
            <mxPoint x="250" y="930" as="sourcePoint" />
            <mxPoint x="390" y="1070" as="targetPoint" />
          </mxGeometry>
        </mxCell>
        <mxCell id="J3fuifu_T9cTO9apQkdv-20" value="" style="endArrow=none;html=1;strokeWidth=1;rounded=0;comic=1;sketch=0;jiggle=0;fontColor=#FF4A4A;strokeColor=#B0B0B0;dashed=1;" parent="Ogjc830XC39CnvKuDkZH-1" edge="1">
          <mxGeometry width="50" height="50" relative="1" as="geometry">
            <mxPoint x="250" y="1010" as="sourcePoint" />
            <mxPoint x="390" y="1150" as="targetPoint" />
          </mxGeometry>
        </mxCell>
        <mxCell id="J3fuifu_T9cTO9apQkdv-21" value="" style="endArrow=none;html=1;strokeWidth=1;rounded=0;comic=1;sketch=0;jiggle=0;fontColor=#FF4A4A;strokeColor=#B0B0B0;dashed=1;" parent="Ogjc830XC39CnvKuDkZH-1" edge="1">
          <mxGeometry width="50" height="50" relative="1" as="geometry">
            <mxPoint x="250" y="1090" as="sourcePoint" />
            <mxPoint x="390" y="1230" as="targetPoint" />
          </mxGeometry>
        </mxCell>
        <mxCell id="J3fuifu_T9cTO9apQkdv-22" value="" style="endArrow=none;html=1;strokeWidth=1;rounded=0;comic=1;sketch=0;jiggle=0;fontColor=#FF4A4A;strokeColor=#B0B0B0;dashed=1;" parent="Ogjc830XC39CnvKuDkZH-1" edge="1">
          <mxGeometry width="50" height="50" relative="1" as="geometry">
            <mxPoint x="250" y="1170" as="sourcePoint" />
            <mxPoint x="390" y="1310" as="targetPoint" />
          </mxGeometry>
        </mxCell>
        <mxCell id="J3fuifu_T9cTO9apQkdv-23" value="" style="endArrow=none;html=1;strokeWidth=1;rounded=0;comic=1;sketch=0;jiggle=0;fontColor=#FF4A4A;strokeColor=#B0B0B0;dashed=1;" parent="Ogjc830XC39CnvKuDkZH-1" edge="1">
          <mxGeometry width="50" height="50" relative="1" as="geometry">
            <mxPoint x="250" y="1250" as="sourcePoint" />
            <mxPoint x="390" y="1390" as="targetPoint" />
          </mxGeometry>
        </mxCell>
        <mxCell id="J3fuifu_T9cTO9apQkdv-24" value="" style="endArrow=none;html=1;strokeColor=#e6e6e6;strokeWidth=4;curved=1;sketch=0;jiggle=0;fixDash=0;backgroundOutline=0;comic=1;orthogonal=0;orthogonalLoop=0;ignoreEdge=0;" parent="Ogjc830XC39CnvKuDkZH-1" edge="1">
          <mxGeometry width="50" height="50" relative="1" as="geometry">
            <mxPoint x="240" y="930" as="sourcePoint" />
            <mxPoint x="240" y="1390" as="targetPoint" />
          </mxGeometry>
        </mxCell>
        <mxCell id="J3fuifu_T9cTO9apQkdv-36" value="" style="endArrow=none;html=1;strokeWidth=1;rounded=0;comic=1;sketch=0;jiggle=0;fontColor=#FF4A4A;strokeColor=#B0B0B0;dashed=1;" parent="Ogjc830XC39CnvKuDkZH-1" edge="1">
          <mxGeometry width="50" height="50" relative="1" as="geometry">
            <mxPoint x="420" y="1340" as="sourcePoint" />
            <mxPoint x="480" y="1400" as="targetPoint" />
          </mxGeometry>
        </mxCell>
        <mxCell id="J3fuifu_T9cTO9apQkdv-37" value="" style="endArrow=none;html=1;strokeWidth=1;rounded=0;comic=1;sketch=0;jiggle=0;fontColor=#FF4A4A;strokeColor=#B0B0B0;dashed=1;" parent="Ogjc830XC39CnvKuDkZH-1" edge="1">
          <mxGeometry width="50" height="50" relative="1" as="geometry">
            <mxPoint x="490" y="930" as="sourcePoint" />
            <mxPoint x="550" y="990" as="targetPoint" />
          </mxGeometry>
        </mxCell>
        <mxCell id="J3fuifu_T9cTO9apQkdv-38" value="" style="endArrow=none;html=1;strokeWidth=1;rounded=0;comic=1;sketch=0;jiggle=0;fontColor=#FF4A4A;strokeColor=#B0B0B0;dashed=1;" parent="Ogjc830XC39CnvKuDkZH-1" edge="1">
          <mxGeometry width="50" height="50" relative="1" as="geometry">
            <mxPoint x="410" y="930" as="sourcePoint" />
            <mxPoint x="550" y="1070" as="targetPoint" />
          </mxGeometry>
        </mxCell>
        <mxCell id="J3fuifu_T9cTO9apQkdv-39" value="" style="endArrow=none;html=1;strokeWidth=1;rounded=0;comic=1;sketch=0;jiggle=0;fontColor=#FF4A4A;strokeColor=#B0B0B0;dashed=1;" parent="Ogjc830XC39CnvKuDkZH-1" edge="1">
          <mxGeometry width="50" height="50" relative="1" as="geometry">
            <mxPoint x="410" y="1010" as="sourcePoint" />
            <mxPoint x="550" y="1150" as="targetPoint" />
          </mxGeometry>
        </mxCell>
        <mxCell id="J3fuifu_T9cTO9apQkdv-40" value="" style="endArrow=none;html=1;strokeWidth=1;rounded=0;comic=1;sketch=0;jiggle=0;fontColor=#FF4A4A;strokeColor=#B0B0B0;dashed=1;" parent="Ogjc830XC39CnvKuDkZH-1" edge="1">
          <mxGeometry width="50" height="50" relative="1" as="geometry">
            <mxPoint x="410" y="1090" as="sourcePoint" />
            <mxPoint x="550" y="1230" as="targetPoint" />
          </mxGeometry>
        </mxCell>
        <mxCell id="J3fuifu_T9cTO9apQkdv-41" value="" style="endArrow=none;html=1;strokeWidth=1;rounded=0;comic=1;sketch=0;jiggle=0;fontColor=#FF4A4A;strokeColor=#B0B0B0;dashed=1;" parent="Ogjc830XC39CnvKuDkZH-1" edge="1">
          <mxGeometry width="50" height="50" relative="1" as="geometry">
            <mxPoint x="410" y="1170" as="sourcePoint" />
            <mxPoint x="550" y="1310" as="targetPoint" />
          </mxGeometry>
        </mxCell>
        <mxCell id="J3fuifu_T9cTO9apQkdv-42" value="" style="endArrow=none;html=1;strokeWidth=1;rounded=0;comic=1;sketch=0;jiggle=0;fontColor=#FF4A4A;strokeColor=#B0B0B0;dashed=1;" parent="Ogjc830XC39CnvKuDkZH-1" edge="1">
          <mxGeometry width="50" height="50" relative="1" as="geometry">
            <mxPoint x="410" y="1250" as="sourcePoint" />
            <mxPoint x="550" y="1390" as="targetPoint" />
          </mxGeometry>
        </mxCell>
        <mxCell id="J3fuifu_T9cTO9apQkdv-43" value="" style="endArrow=none;html=1;strokeColor=#e6e6e6;strokeWidth=4;curved=1;sketch=0;jiggle=0;fixDash=0;backgroundOutline=0;comic=1;orthogonal=0;orthogonalLoop=0;ignoreEdge=0;" parent="Ogjc830XC39CnvKuDkZH-1" edge="1">
          <mxGeometry width="50" height="50" relative="1" as="geometry">
            <mxPoint x="400" y="930" as="sourcePoint" />
            <mxPoint x="400" y="1390" as="targetPoint" />
          </mxGeometry>
        </mxCell>
        <mxCell id="J3fuifu_T9cTO9apQkdv-57" value="" style="endArrow=none;html=1;strokeWidth=1;rounded=0;comic=1;sketch=0;jiggle=0;fontColor=#FF4A4A;strokeColor=#B0B0B0;dashed=1;" parent="Ogjc830XC39CnvKuDkZH-1" edge="1">
          <mxGeometry width="50" height="50" relative="1" as="geometry">
            <mxPoint x="580" y="1340" as="sourcePoint" />
            <mxPoint x="640" y="1400" as="targetPoint" />
          </mxGeometry>
        </mxCell>
        <mxCell id="J3fuifu_T9cTO9apQkdv-58" value="" style="endArrow=none;html=1;strokeWidth=1;rounded=0;comic=1;sketch=0;jiggle=0;fontColor=#FF4A4A;strokeColor=#B0B0B0;dashed=1;" parent="Ogjc830XC39CnvKuDkZH-1" edge="1">
          <mxGeometry width="50" height="50" relative="1" as="geometry">
            <mxPoint x="650" y="930" as="sourcePoint" />
            <mxPoint x="710" y="990" as="targetPoint" />
          </mxGeometry>
        </mxCell>
        <mxCell id="J3fuifu_T9cTO9apQkdv-59" value="" style="endArrow=none;html=1;strokeWidth=1;rounded=0;comic=1;sketch=0;jiggle=0;fontColor=#FF4A4A;strokeColor=#B0B0B0;dashed=1;" parent="Ogjc830XC39CnvKuDkZH-1" edge="1">
          <mxGeometry width="50" height="50" relative="1" as="geometry">
            <mxPoint x="570" y="930" as="sourcePoint" />
            <mxPoint x="710" y="1070" as="targetPoint" />
          </mxGeometry>
        </mxCell>
        <mxCell id="J3fuifu_T9cTO9apQkdv-60" value="" style="endArrow=none;html=1;strokeWidth=1;rounded=0;comic=1;sketch=0;jiggle=0;fontColor=#FF4A4A;strokeColor=#B0B0B0;dashed=1;" parent="Ogjc830XC39CnvKuDkZH-1" edge="1">
          <mxGeometry width="50" height="50" relative="1" as="geometry">
            <mxPoint x="570" y="1010" as="sourcePoint" />
            <mxPoint x="710" y="1150" as="targetPoint" />
          </mxGeometry>
        </mxCell>
        <mxCell id="J3fuifu_T9cTO9apQkdv-61" value="" style="endArrow=none;html=1;strokeWidth=1;rounded=0;comic=1;sketch=0;jiggle=0;fontColor=#FF4A4A;strokeColor=#B0B0B0;dashed=1;" parent="Ogjc830XC39CnvKuDkZH-1" edge="1">
          <mxGeometry width="50" height="50" relative="1" as="geometry">
            <mxPoint x="570" y="1090" as="sourcePoint" />
            <mxPoint x="710" y="1230" as="targetPoint" />
          </mxGeometry>
        </mxCell>
        <mxCell id="J3fuifu_T9cTO9apQkdv-62" value="" style="endArrow=none;html=1;strokeWidth=1;rounded=0;comic=1;sketch=0;jiggle=0;fontColor=#FF4A4A;strokeColor=#B0B0B0;dashed=1;" parent="Ogjc830XC39CnvKuDkZH-1" edge="1">
          <mxGeometry width="50" height="50" relative="1" as="geometry">
            <mxPoint x="570" y="1170" as="sourcePoint" />
            <mxPoint x="710" y="1310" as="targetPoint" />
          </mxGeometry>
        </mxCell>
        <mxCell id="J3fuifu_T9cTO9apQkdv-63" value="" style="endArrow=none;html=1;strokeWidth=1;rounded=0;comic=1;sketch=0;jiggle=0;fontColor=#FF4A4A;strokeColor=#B0B0B0;dashed=1;" parent="Ogjc830XC39CnvKuDkZH-1" edge="1">
          <mxGeometry width="50" height="50" relative="1" as="geometry">
            <mxPoint x="570" y="1250" as="sourcePoint" />
            <mxPoint x="710" y="1390" as="targetPoint" />
          </mxGeometry>
        </mxCell>
        <mxCell id="J3fuifu_T9cTO9apQkdv-64" value="" style="endArrow=none;html=1;strokeColor=#e6e6e6;strokeWidth=4;curved=1;sketch=0;jiggle=0;fixDash=0;backgroundOutline=0;comic=1;orthogonal=0;orthogonalLoop=0;ignoreEdge=0;" parent="Ogjc830XC39CnvKuDkZH-1" edge="1">
          <mxGeometry width="50" height="50" relative="1" as="geometry">
            <mxPoint x="560" y="930" as="sourcePoint" />
            <mxPoint x="560" y="1390" as="targetPoint" />
          </mxGeometry>
        </mxCell>
        <mxCell id="2zsmt-05qYfTrGcmLBN7-0" value="seeds" style="" parent="Ogjc830XC39CnvKuDkZH-0" />
        <mxCell id="LX7c_TvZ-86P2RPFSRAp-4" value="" style="endArrow=none;html=1;strokeColor=#000000;strokeWidth=5;curved=1;sketch=0;jiggle=0;fixDash=0;backgroundOutline=0;comic=1;orthogonal=0;orthogonalLoop=0;ignoreEdge=0;fillColor=#f8cecc;" parent="2zsmt-05qYfTrGcmLBN7-0" edge="1">
          <mxGeometry width="50" height="50" relative="1" as="geometry">
            <mxPoint x="-549.9999999999998" y="900" as="sourcePoint" />
            <mxPoint x="-409.9999999999998" y="900" as="targetPoint" />
          </mxGeometry>
        </mxCell>
        <mxCell id="LX7c_TvZ-86P2RPFSRAp-6" value="" style="endArrow=none;html=1;strokeColor=#000000;strokeWidth=5;curved=1;sketch=0;jiggle=0;fixDash=0;backgroundOutline=0;comic=1;orthogonal=0;orthogonalLoop=0;ignoreEdge=0;fillColor=#f8cecc;" parent="2zsmt-05qYfTrGcmLBN7-0" edge="1">
          <mxGeometry width="50" height="50" relative="1" as="geometry">
            <mxPoint x="-389.9999999999998" y="900" as="sourcePoint" />
            <mxPoint x="-250" y="900" as="targetPoint" />
          </mxGeometry>
        </mxCell>
        <mxCell id="LX7c_TvZ-86P2RPFSRAp-7" value="" style="endArrow=none;html=1;strokeColor=#000000;strokeWidth=5;curved=1;sketch=0;jiggle=0;fixDash=0;backgroundOutline=0;comic=1;orthogonal=0;orthogonalLoop=0;ignoreEdge=0;fillColor=#f8cecc;" parent="2zsmt-05qYfTrGcmLBN7-0" edge="1">
          <mxGeometry width="50" height="50" relative="1" as="geometry">
            <mxPoint x="-70" y="900" as="sourcePoint" />
            <mxPoint x="70" y="900" as="targetPoint" />
          </mxGeometry>
        </mxCell>
        <mxCell id="LX7c_TvZ-86P2RPFSRAp-9" value="" style="endArrow=none;html=1;strokeColor=#000000;strokeWidth=5;curved=1;sketch=0;jiggle=0;fixDash=0;backgroundOutline=0;comic=1;orthogonal=0;orthogonalLoop=0;ignoreEdge=0;fillColor=#f8cecc;" parent="2zsmt-05qYfTrGcmLBN7-0" edge="1">
          <mxGeometry width="50" height="50" relative="1" as="geometry">
            <mxPoint x="90" y="900" as="sourcePoint" />
            <mxPoint x="230" y="900" as="targetPoint" />
          </mxGeometry>
        </mxCell>
        <mxCell id="ftcIXAmK4sPqcBTZkgfo-0" value="$$\cdots$$" style="text;html=1;align=center;verticalAlign=middle;resizable=1;points=[];autosize=1;strokeColor=none;fillColor=none;labelBorderColor=none;fontSize=30;" parent="2zsmt-05qYfTrGcmLBN7-0" vertex="1">
          <mxGeometry x="-240" y="880" width="160" height="40" as="geometry" />
        </mxCell>
        <mxCell id="J3fuifu_T9cTO9apQkdv-55" value="" style="endArrow=none;html=1;strokeColor=#000000;strokeWidth=5;curved=1;sketch=0;jiggle=0;fixDash=0;backgroundOutline=0;comic=1;orthogonal=0;orthogonalLoop=0;ignoreEdge=0;fillColor=#f8cecc;" parent="2zsmt-05qYfTrGcmLBN7-0" edge="1">
          <mxGeometry width="50" height="50" relative="1" as="geometry">
            <mxPoint x="410" y="900" as="sourcePoint" />
            <mxPoint x="550" y="900" as="targetPoint" />
          </mxGeometry>
        </mxCell>
        <mxCell id="v8GvmoWRo6KtidZVMmgF-0" value="$$\cdots$$" style="text;html=1;align=center;verticalAlign=middle;resizable=1;points=[];autosize=1;strokeColor=none;fillColor=none;labelBorderColor=none;fontSize=30;" parent="2zsmt-05qYfTrGcmLBN7-0" vertex="1">
          <mxGeometry x="240" y="880" width="160" height="40" as="geometry" />
        </mxCell>
        <mxCell id="v8GvmoWRo6KtidZVMmgF-1" value="$$\cdots$$" style="text;html=1;align=center;verticalAlign=middle;resizable=1;points=[];autosize=1;strokeColor=none;fillColor=none;labelBorderColor=none;fontSize=30;" parent="2zsmt-05qYfTrGcmLBN7-0" vertex="1">
          <mxGeometry x="560" y="880" width="160" height="40" as="geometry" />
        </mxCell>
        <mxCell id="2zsmt-05qYfTrGcmLBN7-33" value="matches" style="locked=1;" parent="Ogjc830XC39CnvKuDkZH-0" />
        <mxCell id="2zsmt-05qYfTrGcmLBN7-39" value="" style="endArrow=none;html=1;strokeWidth=5;rounded=0;comic=1;sketch=0;jiggle=0;fontColor=#FF4A4A;strokeColor=#000000;fillColor=#d5e8d4;" parent="2zsmt-05qYfTrGcmLBN7-33" edge="1">
          <mxGeometry width="50" height="50" relative="1" as="geometry">
            <mxPoint x="-390" y="931" as="sourcePoint" />
            <mxPoint x="-250" y="1071" as="targetPoint" />
          </mxGeometry>
        </mxCell>
        <mxCell id="Vw8lOJhovGailJ2RPHOI-5" value="" style="endArrow=none;html=1;strokeWidth=5;rounded=0;comic=1;sketch=0;jiggle=0;fontColor=#FF4A4A;strokeColor=#000000;fillColor=#d5e8d4;" parent="2zsmt-05qYfTrGcmLBN7-33" edge="1">
          <mxGeometry width="50" height="50" relative="1" as="geometry">
            <mxPoint x="-70" y="1091" as="sourcePoint" />
            <mxPoint x="70" y="1231" as="targetPoint" />
          </mxGeometry>
        </mxCell>
        <mxCell id="J3fuifu_T9cTO9apQkdv-26" value="" style="endArrow=none;html=1;strokeWidth=5;rounded=0;comic=1;sketch=0;jiggle=0;fontColor=#FF4A4A;strokeColor=#000000;fillColor=#d5e8d4;" parent="2zsmt-05qYfTrGcmLBN7-33" edge="1">
          <mxGeometry width="50" height="50" relative="1" as="geometry">
            <mxPoint x="410" y="1250" as="sourcePoint" />
            <mxPoint x="550" y="1390" as="targetPoint" />
          </mxGeometry>
        </mxCell>
        <mxCell id="anqRwy-GTnwR7zk8qSKB-0" value="path" style="locked=1;" parent="Ogjc830XC39CnvKuDkZH-0" />
        <mxCell id="kzaNlj0tLBQvEcmoECjD-0" value="" style="endArrow=open;html=1;comic=1;sketch=0;jiggle=0;fontColor=#FF4A4A;strokeWidth=4;fillColor=#dae8fc;strokeColor=#0066CC;endFill=0;dashed=1;endSize=10;curved=1;entryX=-0.048;entryY=0.626;entryDx=0;entryDy=0;entryPerimeter=0;" parent="anqRwy-GTnwR7zk8qSKB-0" target="Vw8lOJhovGailJ2RPHOI-3" edge="1">
          <mxGeometry width="50" height="50" relative="1" as="geometry">
            <mxPoint x="-548" y="910" as="sourcePoint" />
            <mxPoint x="203" y="1315" as="targetPoint" />
            <Array as="points">
              <mxPoint x="-477" y="925" />
              <mxPoint x="-400" y="930" />
              <mxPoint x="-257" y="1095" />
              <mxPoint x="-180" y="1090" />
              <mxPoint x="-80" y="1095" />
              <mxPoint x="13" y="1195" />
              <mxPoint x="70" y="1250" />
            </Array>
          </mxGeometry>
        </mxCell>
        <mxCell id="GTWspGSL2SNszmtMqCKp-1" value="nodes" style="" parent="Ogjc830XC39CnvKuDkZH-0" />
        <mxCell id="Vw8lOJhovGailJ2RPHOI-3" value="" style="ellipse;whiteSpace=wrap;html=1;aspect=fixed;fontSize=30;strokeColor=#b85450;strokeWidth=6;fillColor=#f8cecc;" parent="GTWspGSL2SNszmtMqCKp-1" vertex="1">
          <mxGeometry x="230" y="1230" width="20" height="20" as="geometry" />
        </mxCell>
        <mxCell id="J3fuifu_T9cTO9apQkdv-49" value="" style="ellipse;whiteSpace=wrap;html=1;aspect=fixed;fontSize=30;strokeColor=#666666;strokeWidth=6;fillColor=#f5f5f5;direction=west;fontColor=#333333;" parent="GTWspGSL2SNszmtMqCKp-1" vertex="1">
          <mxGeometry x="390" y="1230" width="20" height="20" as="geometry" />
        </mxCell>
        <mxCell id="J3fuifu_T9cTO9apQkdv-53" value="" style="ellipse;whiteSpace=wrap;html=1;aspect=fixed;fontSize=30;strokeColor=#314354;strokeWidth=6;fillColor=#647687;direction=west;fontColor=#ffffff;" parent="GTWspGSL2SNszmtMqCKp-1" vertex="1">
          <mxGeometry x="710" y="1389" width="20" height="20" as="geometry" />
        </mxCell>
        <mxCell id="J3fuifu_T9cTO9apQkdv-54" value="" style="ellipse;whiteSpace=wrap;html=1;aspect=fixed;fontSize=30;strokeColor=#82b366;strokeWidth=6;fillColor=#d5e8d4;direction=west;" parent="GTWspGSL2SNszmtMqCKp-1" vertex="1">
          <mxGeometry x="-490" y="910" width="20" height="20" as="geometry" />
        </mxCell>
        <mxCell id="IK-vXfkU1QzThXHfgCx8-0" value="labels" style="locked=1;" parent="Ogjc830XC39CnvKuDkZH-0" />
        <mxCell id="IK-vXfkU1QzThXHfgCx8-2" value="$$\pi^*$$" style="text;html=1;align=center;verticalAlign=middle;resizable=0;points=[];autosize=1;strokeColor=none;fillColor=none;labelBorderColor=none;fontSize=30;" parent="IK-vXfkU1QzThXHfgCx8-0" vertex="1">
          <mxGeometry x="-230" y="1093" width="150" height="50" as="geometry" />
        </mxCell>
        <mxCell id="IK-vXfkU1QzThXHfgCx8-3" value="$$u$$" style="text;html=1;align=center;verticalAlign=middle;resizable=0;points=[];autosize=1;strokeColor=none;fillColor=none;labelBorderColor=none;fontSize=30;" parent="IK-vXfkU1QzThXHfgCx8-0" vertex="1">
          <mxGeometry x="-521" y="922" width="110" height="50" as="geometry" />
        </mxCell>
        <mxCell id="IK-vXfkU1QzThXHfgCx8-4" value="$$v$$" style="text;html=1;align=center;verticalAlign=middle;resizable=0;points=[];autosize=1;strokeColor=none;fillColor=none;labelBorderColor=none;fontSize=30;" parent="IK-vXfkU1QzThXHfgCx8-0" vertex="1">
          <mxGeometry x="197" y="1188" width="110" height="50" as="geometry" />
        </mxCell>
        <mxCell id="IK-vXfkU1QzThXHfgCx8-6" value="$$m_1$$" style="text;html=1;align=center;verticalAlign=middle;resizable=0;points=[];autosize=1;strokeColor=none;fillColor=none;labelBorderColor=none;fontSize=30;" parent="IK-vXfkU1QzThXHfgCx8-0" vertex="1">
          <mxGeometry x="-370" y="951" width="150" height="50" as="geometry" />
        </mxCell>
        <mxCell id="Vw8lOJhovGailJ2RPHOI-0" value="$$m_l$$" style="text;html=1;align=center;verticalAlign=middle;resizable=0;points=[];autosize=1;strokeColor=none;fillColor=none;labelBorderColor=none;fontSize=30;" parent="IK-vXfkU1QzThXHfgCx8-0" vertex="1">
          <mxGeometry x="-45" y="1111" width="140" height="50" as="geometry" />
        </mxCell>
        <mxCell id="J3fuifu_T9cTO9apQkdv-27" value="$$m_{l+1}$$" style="text;html=1;align=right;verticalAlign=middle;resizable=0;points=[];autosize=1;strokeColor=none;fillColor=none;labelBorderColor=none;fontSize=30;" parent="IK-vXfkU1QzThXHfgCx8-0" vertex="1">
          <mxGeometry x="359" y="1269" width="190" height="50" as="geometry" />
        </mxCell>
        <mxCell id="J3fuifu_T9cTO9apQkdv-48" value="$$v_t$$" style="text;html=1;align=right;verticalAlign=middle;resizable=0;points=[];autosize=1;strokeColor=none;fillColor=none;labelBorderColor=none;fontSize=30;" parent="IK-vXfkU1QzThXHfgCx8-0" vertex="1">
          <mxGeometry x="619" y="1344" width="130" height="50" as="geometry" />
        </mxCell>
        <mxCell id="J3fuifu_T9cTO9apQkdv-50" value="$$\cdots$$" style="text;html=1;align=center;verticalAlign=middle;resizable=1;points=[];autosize=1;strokeColor=none;fillColor=none;labelBorderColor=none;fontSize=30;" parent="IK-vXfkU1QzThXHfgCx8-0" vertex="1">
          <mxGeometry x="-242" y="1055" width="160" height="40" as="geometry" />
        </mxCell>
        <mxCell id="J3fuifu_T9cTO9apQkdv-51" value="$$\cdots$$" style="text;html=1;align=center;verticalAlign=middle;resizable=1;points=[];autosize=1;strokeColor=none;fillColor=none;labelBorderColor=none;fontSize=30;" parent="IK-vXfkU1QzThXHfgCx8-0" vertex="1">
          <mxGeometry x="557" y="1364" width="160" height="40" as="geometry" />
        </mxCell>
        <mxCell id="J3fuifu_T9cTO9apQkdv-52" value="$$w$$" style="text;html=1;align=center;verticalAlign=middle;resizable=0;points=[];autosize=1;strokeColor=none;fillColor=none;labelBorderColor=none;fontSize=30;" parent="IK-vXfkU1QzThXHfgCx8-0" vertex="1">
          <mxGeometry x="365" y="1189" width="110" height="50" as="geometry" />
        </mxCell>
        <mxCell id="J3fuifu_T9cTO9apQkdv-65" value="$$\cdots$$" style="text;html=1;align=center;verticalAlign=middle;resizable=1;points=[];autosize=1;strokeColor=none;fillColor=none;labelBorderColor=none;fontSize=30;" parent="IK-vXfkU1QzThXHfgCx8-0" vertex="1">
          <mxGeometry x="240" y="1219" width="160" height="40" as="geometry" />
        </mxCell>
      </root>
    </mxGraphModel>
  </diagram>
</mxfile>
